<svg xmlns="http://www.w3.org/2000/svg" viewBox="0 0 200 200"><title>B2C_Products_Floor</title><g id="Layer_3" data-name="Layer 3"><path d="M101.88,47.5h-.64a1.36,1.36,0,0,0,1.28,0Z"/><path d="M102.52,47.51a1.46,1.46,0,0,0,.86-1.34,1.5,1.5,0,0,0-3,0,1.46,1.46,0,0,0,.86,1.34A22.88,22.88,0,0,0,79,68.3a2.92,2.92,0,0,0,.75,2.22,3,3,0,0,0,2.21,1h18.94v51.63a22.53,22.53,0,0,1-3,9.66,13,13,0,0,1-9.16,6.57,11.6,11.6,0,0,0-1.28.35,1,1,0,0,0-.61,1.12,1,1,0,0,0,1,.81h28.12a1,1,0,0,0,1-.81,1,1,0,0,0-.61-1.12,11.6,11.6,0,0,0-1.28-.35,13,13,0,0,1-9.16-6.57,22.53,22.53,0,0,1-3-9.66V71.5h18.94a3,3,0,0,0,2.21-1,2.92,2.92,0,0,0,.75-2.22A22.88,22.88,0,0,0,102.52,47.51Zm1.61,86.26a14.63,14.63,0,0,0,5.83,5.87H93.81a14.65,14.65,0,0,0,5.82-5.88,26,26,0,0,0,2.25-5.19A26.28,26.28,0,0,0,104.13,133.77Zm18.42-64.59a1,1,0,0,1-.73.32H81.94a1,1,0,0,1-.73-.32.88.88,0,0,1-.23-.69,21,21,0,0,1,41.81,0A.89.89,0,0,1,122.55,69.18Z"/></g></svg>