<svg xmlns="http://www.w3.org/2000/svg" viewBox="0 0 200 200"><title>B2C_Products_Table</title><g id="Layer_3" data-name="Layer 3"><path d="M123.54,56.21a2.52,2.52,0,0,0-.74-1.85L119,50.55a2.51,2.51,0,0,0-1.79-.75,2.48,2.48,0,0,0-1.73.69L73.25,90a2.52,2.52,0,0,0-.64,2.74,2.56,2.56,0,0,0,2.29,1.64l25.8.82h.08a2.53,2.53,0,0,0,2.53-2.39l.89-17.87a.55.55,0,0,1,.18-.37l4.48-4,5.25,72.93-31.89,1.71a2.53,2.53,0,0,0,.14,5.06h35a2.53,2.53,0,0,0,2.48-3l-.38-1.87a2.55,2.55,0,0,0-2.61-2l-.76,0L110.75,68.8l12-10.78A2.53,2.53,0,0,0,123.54,56.21ZM117,145.27h0a.53.53,0,0,1,.52.43l.38,1.88a.51.51,0,0,1-.11.43.53.53,0,0,1-.41.19h-35a.52.52,0,0,1-.43-.21.53.53,0,0,1,.4-.85Zm4.4-88.73L103,73a2.52,2.52,0,0,0-.84,1.75l-.89,17.86a.53.53,0,0,1-.55.5L75,92.33a.5.5,0,0,1-.47-.34.54.54,0,0,1,.13-.59L116.84,52a.5.5,0,0,1,.36-.14.57.57,0,0,1,.37.14l3.82,3.82a.54.54,0,0,1,0,.77Z"/></g></svg>