<svg xmlns="http://www.w3.org/2000/svg" viewBox="0 0 200 200"><title>B2C_Outdoor_All</title><g id="Layer_3" data-name="Layer 3"><path d="M147.1,60.93h-4.5a5.38,5.38,0,0,0-5.38,5.38V77.93H92.32c0-1.77,0-3.75,0-6a1.89,1.89,0,0,0-.61-1.37c-1.79-1.74-8.16-1.67-9.37-1.63s-7.63-.11-9.42,1.63a1.87,1.87,0,0,0-.6,1.37c0,15.44-.52,18.68-.78,19.34a7.07,7.07,0,0,1-.77.46c-2.13,1.19-6.56,3.65-12.3,12.66-4.8,7.55-6.82,17.45-7.6,22.68a5.11,5.11,0,0,0,5.07,5.86h52.76a5.11,5.11,0,0,0,5.06-5.86c-.77-5.23-2.8-15.13-7.6-22.68-5.74-9-10.17-11.47-12.29-12.66a6.46,6.46,0,0,1-.78-.46c-.17-.43-.45-2-.62-7.34h44.78V95.55a5.39,5.39,0,0,0,5.38,5.38h4.5a2.12,2.12,0,0,0,2.12-2.12V63.05A2.12,2.12,0,0,0,147.1,60.93Zm-42.66,44.53c4.61,7.24,6.56,16.83,7.32,21.91a3.08,3.08,0,0,1-.72,2.47,3.14,3.14,0,0,1-2.37,1.09H55.91a3.11,3.11,0,0,1-2.37-1.09,3,3,0,0,1-.72-2.47c.75-5.08,2.7-14.67,7.31-21.91,5.46-8.58,9.59-10.88,11.58-12A5.88,5.88,0,0,0,73,92.63c.52-.51,1.3-1.29,1.27-20.61.41-.62,3.66-1.11,7.13-1.11l.92,0c3.75-.1,7.56.42,8,1,0,19.41.77,20.19,1.29,20.7a5.88,5.88,0,0,0,1.28.85C94.85,94.58,99,96.88,104.44,105.46ZM92.38,81.93c0-.63,0-1.29,0-2h44.88v2Zm54.84,16.88a.13.13,0,0,1-.12.12h-4.5a3.39,3.39,0,0,1-3.38-3.38V66.31a3.38,3.38,0,0,1,3.38-3.38h4.5a.12.12,0,0,1,.12.12Z"/></g></svg>