<svg xmlns="http://www.w3.org/2000/svg" viewBox="0 0 200 200"><title>B2C_Products_Wall</title><g id="Layer_3" data-name="Layer 3"><path d="M166.89,69.41H160.3A4.6,4.6,0,0,0,155.71,74V93c-2.88,0-8.33.34-12.49,2.6-5.41,3-38.61,25.73-43,29-.34.22-1.62.6-6.32.6H90.93c-1.22,0-2.05,0-2.75.07v-11.4l1.06-.21c.8-.17,2-.81,2-1.88V98.93h6.54a1.62,1.62,0,0,0,1.57-1.21,23.29,23.29,0,0,0,.62-5.64c0-1,0-1.92-.11-2.58h10.74a2,2,0,0,0,1.49-.68,1.93,1.93,0,0,0,.46-1.58,20.12,20.12,0,0,0-3.39-8.47h26.48a2.76,2.76,0,0,0,2.61-1.93,3.06,3.06,0,0,0-1-3.42c-15.49-12-25.31-13.25-28.81-13.25H86.25a.28.28,0,0,0,0-.09v-2a1,1,0,0,0-2,0v2a.28.28,0,0,0,0,.09H62.06c-3.5,0-13.33,1.29-28.81,13.25a3.06,3.06,0,0,0-1,3.42,2.75,2.75,0,0,0,2.61,1.93H61.4A20.3,20.3,0,0,0,58,87.24a2,2,0,0,0,2,2.26H70.66a26.23,26.23,0,0,0,.52,8.22,1.61,1.61,0,0,0,1.56,1.21h6.55v12.86A2,2,0,0,0,81,113.67c.38.08.85.17,1.36.25v22.32a1,1,0,0,0,1,1h3.85a1,1,0,0,0,1-1v-4.93l.19,0c.72-.07,1.77-.08,2.61-.08h3.08c4.5,0,7.69-.3,9.7-1.79,5.24-3.89,37.42-25.89,42.34-28.57,3.09-1.68,7.75-1.86,9.61-1.86v19.6a4.6,4.6,0,0,0,4.59,4.59h6.59a1,1,0,0,0,1-1V70.41A1,1,0,0,0,166.89,69.41Zm-132,7.36c-.78,0-1.08-1.26-.42-1.76,5-3.89,17.69-12.84,27.59-12.84h46.4c9.89,0,22.55,9,27.58,12.84.66.5.37,1.76-.41,1.76ZM60,87.52a17,17,0,0,1,3.78-8.75H106.8a17,17,0,0,1,3.79,8.73H60ZM73,96.93a25.72,25.72,0,0,1-.37-7.43H97.85a25.79,25.79,0,0,1-.38,7.43Zm8.34,14.78a.18.18,0,0,1-.09,0V98.93h7.94v12.61a1.41,1.41,0,0,1-.45.18,16,16,0,0,1-3.52.43A19.9,19.9,0,0,1,81.38,111.71Zm4.8,23.53H84.33V114.15h1.85v21.09Zm59-36.13c-5,2.73-37.33,24.83-42.58,28.72-1.66,1.24-5,1.39-8.5,1.39H91c-1.07,0-2.07,0-2.8.09v-2c.78-.06,1.72-.08,2.75-.08h2.93c2.94,0,6.32-.1,7.51-1,4.41-3.27,37.44-25.94,42.81-28.87,3.74-2,8.76-2.36,11.53-2.36v2C153.13,97,148.46,97.3,145.14,99.11Zm20.75,22.08H160.3a2.6,2.6,0,0,1-2.59-2.59V74a2.59,2.59,0,0,1,2.59-2.59h5.59Z"/></g></svg>