<svg xmlns="http://www.w3.org/2000/svg" viewBox="0 0 200 200"><defs><style>.cls-1{fill:#fff;}</style></defs><title>B2C_Products_Decorative_Pendel</title><g id="Layer_3" data-name="Layer 3"><path class="cls-1" d="M114.82,132.56a25.2,25.2,0,0,1-.59,5.63H85.76a25.81,25.81,0,0,1-.59-5.63Z"/><path d="M165.84,115.38c-6.52-4.06-23.1-13.52-36.25-13.52h-10.3a10.39,10.39,0,0,1,5-4.48,71.63,71.63,0,0,1,8.42-2.52c5.54-1.43,6.86-1.78,6.69-3.08-.13-1.09-1.11-1.33-5.48-1.33H110.5a.59.59,0,0,0,0-.13c-.77-3-1-12.48-1-14.65,0-.22,0-.45,0-.67a3.76,3.76,0,0,0-.67-2.91,2.68,2.68,0,0,0-2-.73H101V45.61a1,1,0,0,0-2,0V71.36H93.25a2.71,2.71,0,0,0-2,.73A3.8,3.8,0,0,0,90.54,75c0,.22,0,.45,0,.67,0,2.17-.27,11.69-1,14.65a.59.59,0,0,0,0,.13H66.16c-4.47,0-5.46.24-5.6,1.33-.16,1.31,1.16,1.65,6.73,3.08a71.84,71.84,0,0,1,8.51,2.52,10.22,10.22,0,0,1,5,4.48H70.4c-13.14,0-29.73,9.46-36.25,13.52a3,3,0,0,0,1.59,5.52H76.1a20.87,20.87,0,0,0-4,9.38,2,2,0,0,0,.47,1.59,2,2,0,0,0,1.5.69h9.11a26.89,26.89,0,0,0,.72,6.35,1.71,1.71,0,0,0,1.66,1.28h28.91a1.71,1.71,0,0,0,1.66-1.28,26.89,26.89,0,0,0,.72-6.35h9.11a2,2,0,0,0,2-2.28,20.66,20.66,0,0,0-4-9.38h40.33a3,3,0,0,0,1.58-5.52ZM92.54,74.92a3.33,3.33,0,0,1,.11-1.44,1,1,0,0,1,.6-.12h13.5c.35,0,.54.06.59.12s.13.93.11,1.44c0,.25,0,.5,0,.75s.13,10.73,1,14.78H91.54c.89-4,1-14.67,1-14.78S92.55,75.17,92.54,74.92Zm-16,20.63a71.14,71.14,0,0,0-8.8-2.63L66,92.45h68.08l-1.81.47a71,71,0,0,0-8.71,2.63,12.28,12.28,0,0,0-6.47,6.31H83A12.08,12.08,0,0,0,76.59,95.55Zm37.64,42.64H85.76a25.81,25.81,0,0,1-.59-5.63h29.65A25.2,25.2,0,0,1,114.23,138.19Zm11.71-7.63H74.06a18.62,18.62,0,0,1,4.52-9.66h42.84A18.7,18.7,0,0,1,125.94,130.56Zm38.32-11.66H35.74a1,1,0,0,1-.53-1.82c6.42-4,22.57-13.22,35.19-13.22h59.19c12.63,0,28.78,9.22,35.19,13.22A1,1,0,0,1,164.26,118.9Z"/><path d="M165.84,115.38c-6.52-4.06-23.1-13.52-36.25-13.52h-10.3a10.39,10.39,0,0,1,5-4.48,71.63,71.63,0,0,1,8.42-2.52c5.54-1.43,6.86-1.78,6.69-3.08-.13-1.09-1.11-1.33-5.48-1.33H110.5a.59.59,0,0,0,0-.13c-.77-3-1-12.48-1-14.65,0-.22,0-.45,0-.67a3.76,3.76,0,0,0-.67-2.91,2.68,2.68,0,0,0-2-.73H101V45.61a1,1,0,0,0-2,0V71.36H93.25a2.71,2.71,0,0,0-2,.73A3.8,3.8,0,0,0,90.54,75c0,.22,0,.45,0,.67,0,2.17-.27,11.69-1,14.65a.59.59,0,0,0,0,.13H66.16c-4.47,0-5.46.24-5.6,1.33-.16,1.31,1.16,1.65,6.73,3.08a71.84,71.84,0,0,1,8.51,2.52,10.22,10.22,0,0,1,5,4.48H70.4c-13.14,0-29.73,9.46-36.25,13.52a3,3,0,0,0,1.59,5.52H76.1a20.87,20.87,0,0,0-4,9.38,2,2,0,0,0,.47,1.59,2,2,0,0,0,1.5.69h9.11a26.89,26.89,0,0,0,.72,6.35,1.71,1.71,0,0,0,1.66,1.28h28.91a1.71,1.71,0,0,0,1.66-1.28,26.89,26.89,0,0,0,.72-6.35h9.11a2,2,0,0,0,2-2.28,20.66,20.66,0,0,0-4-9.38h40.33a3,3,0,0,0,1.58-5.52ZM92.54,74.92a3.33,3.33,0,0,1,.11-1.44,1,1,0,0,1,.6-.12h13.5c.35,0,.54.06.59.12s.13.93.11,1.44c0,.25,0,.5,0,.75s.13,10.73,1,14.78H91.54c.89-4,1-14.67,1-14.78S92.55,75.17,92.54,74.92Zm-16,20.63a71.14,71.14,0,0,0-8.8-2.63L66,92.45h68.08l-1.81.47a71,71,0,0,0-8.71,2.63,12.28,12.28,0,0,0-6.47,6.31H83A12.08,12.08,0,0,0,76.59,95.55Zm37.64,42.64H85.76a25.81,25.81,0,0,1-.59-5.63h29.65A25.2,25.2,0,0,1,114.23,138.19Zm11.71-7.63H74.06a18.62,18.62,0,0,1,4.52-9.66h42.84A18.7,18.7,0,0,1,125.94,130.56Zm38.32-11.66H35.74a1,1,0,0,1-.53-1.82c6.42-4,22.57-13.22,35.19-13.22h59.19c12.63,0,28.78,9.22,35.19,13.22A1,1,0,0,1,164.26,118.9Z"/></g></svg>